<svg xmlns="http://www.w3.org/2000/svg" viewBox="0 0 64 64" width="50" height="50"><path d="M51 44a1 1 0 001-1v-2a1 1 0 10-2 0v2a1 1 0 001 1zm-5 0a1 1 0 001-1v-2a1 1 0 10-2 0v2a1 1 0 001 1zm10 0a1 1 0 001-1v-2a1 1 0 10-2 0v2a1 1 0 001 1zm-15 0a1 1 0 001-1v-2a1 1 0 10-2 0v2a1 1 0 001 1zm-5 0a1 1 0 001-1v-2a1 1 0 10-2 0v2a1 1 0 001 1zM21 24h-8a1 1 0 100 2h8a1 1 0 100-2z"/><path d="M64 34v-8c0-1.1-.9-2-2-2h-.04c-.51-7.81-7.03-14-14.96-14H17C8.729 10 2 16.729 2 25v21.184A2.996 2.996 0 000 49c0 1.654 1.346 3 3 3h19.382l1.171 2.342A2.983 2.983 0 0026.236 56H28v7a1 1 0 102 0v-7h6v7a1 1 0 102 0v-7h1.764a2.984 2.984 0 002.684-1.658L43.618 52H61c1.654 0 3-1.346 3-3a2.996 2.996 0 00-2-2.816V36c1.1 0 2-.9 2-2zM47 12c6.83 0 12.45 5.3 12.96 12H41.64c-.73-.65-1.66-1-2.64-1-1.07 0-2.07.42-2.83 1.17a4.004 4.004 0 000 5.66c.76.75 1.76 1.17 2.83 1.17.98 0 1.91-.35 2.64-1h15.34l.88 4.39c.18.93 1.01 1.61 1.96 1.61H60v10H32V25c0-5.558-3.045-10.409-7.548-13H47zm-6 15c0 .36-.09.7-.28 1-.08.15-.19.29-.31.41-.37.38-.89.57-1.41.57s-1.04-.19-1.41-.57a2.004 2.004 0 01-.474-.805c-.023-.071-.061-.135-.075-.208-.018-.131-.041-.261-.041-.397s.023-.266.04-.397c.015-.072.052-.135.074-.205.098-.299.248-.58.476-.808.37-.38.88-.59 1.41-.59s1.04.21 1.41.59c.12.12.23.26.31.41.19.3.28.64.28 1zM4 25c0-7.168 5.832-13 13-13s13 5.832 13 13v21H4V25zm36.658 28.447a.995.995 0 01-.894.553H26.236a.996.996 0 01-.895-.553L24.618 52h16.764l-.724 1.447zM61 50H3a1.001 1.001 0 010-2h58a1.001 1.001 0 010 2zm-1-16h-.18l-.88-4.39A2.01 2.01 0 0056.98 28H42.87c.09-.32.13-.66.13-1 0-.34-.04-.68-.13-1H62v8h-2z"/></svg>