<svg xmlns="http://www.w3.org/2000/svg" viewBox="0 0 64 64" width="50" height="50"><path d="M52.42 11.407C46.949 5.982 39.704 3 32.005 3h-.127c-7.746.033-15.017 3.08-20.471 8.581C5.953 17.082 2.967 24.377 3 32.123c.033 7.746 3.08 15.016 8.58 20.47C17.051 58.018 24.296 61 31.995 61h.127c7.746-.033 15.017-3.08 20.471-8.581 5.454-5.501 8.44-12.796 8.407-20.542-.033-7.746-3.08-15.016-8.58-20.47zM32.114 59c-1.3.004-2.585-.086-3.851-.261V38.626h-6.186v-6.572h6.186v-4.373c0-7.24 3.527-10.418 9.544-10.418 2.882 0 4.405.214 5.127.311v5.736H38.83c-2.554 0-3.446 2.422-3.446 5.152v3.592h7.486l-1.016 6.572h-6.47v20.157a27.47 27.47 0 01-3.27.217zm19.059-7.989c-3.817 3.85-8.59 6.408-13.789 7.454V40.626h4.47a2 2 0 001.977-1.694l1-6.468a1.998 1.998 0 00-1.955-2.409h-5.491v-1.592c0-1.177.188-3.152 1.446-3.152h4.104a2 2 0 002-2v-5.736a2 2 0 00-1.733-1.982c-.82-.111-2.435-.329-5.394-.329-7.444 0-11.544 4.41-11.544 12.418v2.373h-4.186a2 2 0 00-2 2v6.572a2 2 0 002 2h4.186v17.756a26.817 26.817 0 01-13.274-7.209C7.867 46.095 5.03 39.326 5 32.114c-.03-7.212 2.749-14.004 7.827-19.125C17.905 7.868 24.674 5.031 31.886 5h.119c7.167 0 13.913 2.777 19.006 7.827C56.133 17.905 58.97 24.674 59 31.886c.03 7.212-2.749 14.004-7.827 19.125zm1.661-7.097l-.002.003a1 1 0 01-1.363.368l-1.736-.992a1 1 0 01-.372-1.364l.003-.004a1 1 0 011.363-.368l1.736.992a1 1 0 01.371 1.365zm2.225-5.436a.998.998 0 01-1.221.713l-1.934-.51a1 1 0 11.51-1.934l1.933.509a1 1 0 01.712 1.222zM44.994 50.817a1 1 0 01-1.729 1.007l-1.007-1.728a1 1 0 111.729-1.006l1.007 1.727zm10.809-18.165a.999.999 0 01-.997 1.004l-2 .008a1 1 0 11-.008-2l2.001-.007a.999.999 0 011.004.995zm-6.531 14.524a1.001 1.001 0 01.006 1.415.999.999 0 01-1.414.005l-1.42-1.409a1 1 0 111.409-1.419l1.419 1.408zM27.16 9.613a1.002 1.002 0 01-.738 1.206 20.8 20.8 0 00-2.196.658 1 1 0 11-.679-1.881 22.954 22.954 0 012.406-.72.999.999 0 011.207.737zm-6.34 2.282a.998.998 0 01-.338 1.374 21.089 21.089 0 00-8.868 10.784.995.995 0 01-1.279.599 1 1 0 01-.599-1.282 23.082 23.082 0 019.71-11.813 1.002 1.002 0 011.374.338z"/></svg>