<svg xmlns="http://www.w3.org/2000/svg" viewBox="0 0 64 64" width="50" height="50"><path d="M53 18h-4a1 1 0 000 2h4a1 1 0 000-2zM37 34.177H25.406a1 1 0 00-1 1v4.703a1 1 0 001 1h5.119c-1.112 2.222-3.357 2.73-5.177 2.73-3.625 0-6.573-2.888-6.573-6.438s2.949-6.438 6.573-6.438c1.588 0 3.121.562 4.316 1.583a1 1 0 001.398-.097l3.144-3.548a.998.998 0 00-.099-1.423 13.486 13.486 0 00-8.759-3.218c-7.368 0-13.362 5.895-13.362 13.141s5.994 13.141 13.362 13.141C32.916 50.314 38 45.176 38 37.529v-2.352a1 1 0 00-1-1zm-1 3.352c0 6.451-4.281 10.785-10.652 10.785-6.265 0-11.362-4.998-11.362-11.141s5.097-11.141 11.362-11.141c2.4 0 4.727.744 6.655 2.111l-1.824 2.059a8.67 8.67 0 00-4.831-1.467c-4.728 0-8.573 3.785-8.573 8.438s3.846 8.438 8.573 8.438c3.947 0 6.705-2.001 7.568-5.49a1 1 0 00-.971-1.24h-5.539v-2.703H36v1.351zM51 34h-2v-2a1 1 0 00-1-1h-4a1 1 0 00-1 1v2h-2a1 1 0 00-1 1v4a1 1 0 001 1h2v2a1 1 0 001 1h4a1 1 0 001-1v-2h2a1 1 0 001-1v-4a1 1 0 00-1-1zm-1 4h-2a1 1 0 00-1 1v2h-2v-2a1 1 0 00-1-1h-2v-2h2a1 1 0 001-1v-2h2v2a1 1 0 001 1h2v2z"/><path d="M51 6H13c-3.86 0-7 3.14-7 7v38c0 3.86 3.14 7 7 7h38c3.86 0 7-3.14 7-7V13c0-3.86-3.14-7-7-7zm5 45c0 2.757-2.243 5-5 5H13c-2.757 0-5-2.243-5-5V20h37a1 1 0 000-2H8v-5c0-2.757 2.243-5 5-5h38c2.757 0 5 2.243 5 5v38z"/><path d="M17 12a1 1 0 00-1 1v2a1 1 0 002 0v-2a1 1 0 00-1-1zm-5 0a1 1 0 00-1 1v2a1 1 0 002 0v-2a1 1 0 00-1-1zm20 0a1 1 0 00-1 1v2a1 1 0 002 0v-2a1 1 0 00-1-1zm5 0a1 1 0 00-1 1v2a1 1 0 002 0v-2a1 1 0 00-1-1zm5 0a1 1 0 00-1 1v2a1 1 0 002 0v-2a1 1 0 00-1-1zm5 4a1 1 0 001-1v-2a1 1 0 00-2 0v2a1 1 0 001 1zm5 0a1 1 0 001-1v-2a1 1 0 00-2 0v2a1 1 0 001 1zm-30-4a1 1 0 00-1 1v2a1 1 0 002 0v-2a1 1 0 00-1-1zm5 0a1 1 0 00-1 1v2a1 1 0 002 0v-2a1 1 0 00-1-1z"/></svg>