<svg xmlns="http://www.w3.org/2000/svg" viewBox="0 0 64 64" width="50" height="50"><path d="M61 21H3a1 1 0 01-1-1V10a1 1 0 011-1h58a1 1 0 011 1v10a1 1 0 01-1 1zM4 19h56v-8H4v8zm57 19H3a1 1 0 01-1-1V27a1 1 0 011-1h58a1 1 0 011 1v10a1 1 0 01-1 1zM4 36h56v-8H4v8zm3 15a1 1 0 01-1-1v-2a1 1 0 012 0v2a1 1 0 01-1 1zm5 0a1 1 0 01-1-1v-2a1 1 0 012 0v2a1 1 0 01-1 1zm5 0a1 1 0 01-1-1v-2a1 1 0 012 0v2a1 1 0 01-1 1zm5 0a1 1 0 01-1-1v-2a1 1 0 012 0v2a1 1 0 01-1 1zm5 0a1 1 0 01-1-1v-2a1 1 0 012 0v2a1 1 0 01-1 1zm5 0a1 1 0 01-1-1v-2a1 1 0 012 0v2a1 1 0 01-1 1zm5 0a1 1 0 01-1-1v-2a1 1 0 012 0v2a1 1 0 01-1 1zm5 0a1 1 0 01-1-1v-2a1 1 0 012 0v2a1 1 0 01-1 1zm5 0a1 1 0 01-1-1v-2a1 1 0 012 0v2a1 1 0 01-1 1zm5 0a1 1 0 01-1-1v-2a1 1 0 012 0v2a1 1 0 01-1 1zm5 0a1 1 0 01-1-1v-2a1 1 0 012 0v2a1 1 0 01-1 1z"/><path d="M61 55H3a1 1 0 01-1-1V44a1 1 0 011-1h58a1 1 0 011 1v10a1 1 0 01-1 1zM4 53h56v-8H4v8z"/></svg>