<svg xmlns="http://www.w3.org/2000/svg" viewBox="0 0 64 64" width="50" height="50"><path d="M48 13a3 3 0 100 6 3 3 0 000-6zm0 4.47a1.47 1.47 0 110-2.94 1.47 1.47 0 010 2.94z"/><path d="M51 6H13a7 7 0 00-7 7v38a7 7 0 007 7h38a7 7 0 007-7V13a7 7 0 00-7-7zm5 45a5 5 0 01-5 5H13a5 5 0 01-5-5V13a5 5 0 015-5h38a5 5 0 015 5v38z"/><path fill="none" stroke="#000" stroke-miterlimit="10" stroke-width="2" d="M32 19c-7.18 0-13 5.82-13 13s5.82 13 13 13 13-5.82 13-13-5.82-13-13-13z"/><path fill="none" stroke="#000" stroke-miterlimit="10" stroke-width="2" d="M32 23c-4.971 0-9 4.029-9 9s4.029 9 9 9 9-4.029 9-9-4.029-9-9-9z"/><path fill="none" stroke="#000" stroke-linecap="round" stroke-linejoin="round" stroke-miterlimit="10" stroke-width="2" d="M11.947 50v2m4.987-2v2m4.986-2v2m4.987-2v2m4.987-2v2m4.986-2v2m4.987-2v2m4.987-2v2m4.986-2v2"/></svg>