<svg xmlns="http://www.w3.org/2000/svg" viewBox="0 0 64 64" width="50" height="50"><path d="M38.435 11.565C34.846 7.977 30.075 6 25 6s-9.846 1.977-13.435 5.565c-7.408 7.408-7.408 19.461 0 26.869C15.154 42.023 19.925 44 25 44s9.846-1.977 13.435-5.565c7.408-7.409 7.408-19.461 0-26.87zm-1.414 25.456C33.81 40.231 29.541 42 25 42s-8.81-1.769-12.021-4.979c-6.628-6.628-6.628-17.413 0-24.041C16.19 9.769 20.459 8 25 8s8.81 1.769 12.021 4.979c6.628 6.628 6.628 17.414 0 24.042z"/><path d="M31.201 14.724c.824.497 1.592 1.1 2.284 1.791a.997.997 0 001.415 0 1 1 0 000-1.414 14.072 14.072 0 00-2.665-2.09 1 1 0 10-1.034 1.713zm-4.826-3.657A13.95 13.95 0 0015.1 15.1a.999.999 0 101.414 1.414 11.955 11.955 0 019.666-3.457 1.004 1.004 0 001.093-.897 1 1 0 00-.898-1.093z"/><path d="M61.878 54.465L51.536 44.121a4.978 4.978 0 00-3.601-1.455c-.048-.136-2.769-2.914-2.769-2.914A24.857 24.857 0 0050 25C50 11.215 38.785 0 25 0S0 11.215 0 25s11.215 25 25 25a24.857 24.857 0 0014.752-4.834s2.776 2.72 2.911 2.768c0 .022-.006.043-.006.066 0 1.336.521 2.592 1.465 3.535l10.343 10.344A4.982 4.982 0 0058 63.34a4.986 4.986 0 003.537-1.462l.343-.344A4.965 4.965 0 0063.344 58a4.966 4.966 0 00-1.466-3.535zM25 48C12.318 48 2 37.683 2 25S12.318 2 25 2s23 10.317 23 23-10.318 23-23 23zm19.122-3.535c-.389.389-.686.84-.925 1.318l-1.872-1.872a25.053 25.053 0 002.586-2.586l1.876 1.876a4.952 4.952 0 00-1.323.922l-.342.342zm16.342 15.656l-.343.344a3.007 3.007 0 01-4.243 0L45.536 50.121c-.567-.566-.879-1.319-.879-2.121s.312-1.555.88-2.122l.342-.343c.585-.584 1.353-.877 2.122-.877s1.537.293 2.122.877l10.343 10.344c.567.566.879 1.319.879 2.121s-.314 1.555-.881 2.121z"/><path d="M34.192 32.778a.999.999 0 10-1.414 1.414l1.414 1.414a.997.997 0 001.414 0 .999.999 0 000-1.414l-1.414-1.414zm-18.384 0l-1.414 1.414a.999.999 0 101.414 1.414l1.414-1.414a.999.999 0 10-1.414-1.414zM39 24h-2a1 1 0 100 2h2a1 1 0 100-2zm-25 1a1 1 0 00-1-1h-2a1 1 0 100 2h2a1 1 0 001-1zm11 11a1 1 0 00-1 1v2a1 1 0 102 0v-2a1 1 0 00-1-1zm13.278-6.449l-1.841-.782a1 1 0 10-.783 1.84l1.841.782a1.002 1.002 0 001.312-.529.999.999 0 00-.529-1.311zm-17.576 5.574a1.002 1.002 0 00-1.311.53l-.781 1.841a1 1 0 101.841.782l.781-1.841a1.002 1.002 0 00-.53-1.312zm-5.901-6.004a1 1 0 00-1.302-.553l-1.854.749a.999.999 0 10.749 1.854l1.854-.749a.998.998 0 00.553-1.301zm15.621 6.63a1 1 0 00-1.855.75l.75 1.854a1 1 0 001.855-.75l-.75-1.854z"/></svg>