<svg xmlns="http://www.w3.org/2000/svg" viewBox="0 0 64 64" width="50" height="50"><path d="M64 29.759C64 15.65 49.645 4.173 32 4.173S0 15.65 0 29.759s14.355 25.586 32 25.586c2.208 0 4.432-.187 6.62-.555 1.283 2.015 4.833 6.331 12.404 8.014a1.003 1.003 0 001.029-.392c.233-.324.252-.757.046-1.1-2.194-3.658-2.832-7.568-3.005-9.915C58.441 46.678 64 38.631 64 29.759zM47.622 49.893a1 1 0 00-.565.947c.093 2.03.519 5.686 2.23 9.417-6.087-1.997-8.611-5.827-9.284-7.054a1.003 1.003 0 00-1.061-.502 37.957 37.957 0 01-6.942.644c-16.542 0-30-10.581-30-23.586S15.458 6.173 32 6.173s30 10.581 30 23.586c0 8.275-5.375 15.802-14.378 20.134z"/><path d="M20 28a2 2 0 100 4 2 2 0 100-4zm12 0a2 2 0 100 4 2 2 0 100-4zm12 0a2 2 0 100 4 2 2 0 100-4zM31.709 45.69a1 1 0 00-.909 1.083l.173 1.992a.999.999 0 101.992-.174l-.173-1.991c-.048-.55-.509-.969-1.083-.91zm-19.511-8.713l-1.64 1.146a1 1 0 101.144 1.639l1.64-1.146a1 1 0 10-1.144-1.639zm3.507 4.22l-1.287 1.53a1 1 0 101.532 1.287l1.287-1.53a1 1 0 10-1.532-1.287zm5.811 2.687a1.004 1.004 0 00-1.33.482l-.847 1.812a1.001 1.001 0 001.812.848l.847-1.812a1.001 1.001 0 00-.482-1.33zm4.978 1.574a.992.992 0 00-1.159.81l-.35 1.97a1 1 0 001.969.35l.35-1.97a1 1 0 00-.81-1.16z"/><path d="M9.044 30c0-9.925 10.298-18 22.956-18 4.066 0 8.062.847 11.555 2.448a1 1 0 00.834-1.818C40.637 10.909 36.353 10 32 10 18.239 10 7.044 18.972 7.044 30c0 1.347.167 2.69.497 3.996a1 1 0 001.94-.49A14.246 14.246 0 019.044 30zm45.431-8.714a1 1 0 10-1.713 1.033c1.456 2.411 2.194 4.995 2.194 7.681 0 8.194-7.06 15.358-17.167 17.422a1 1 0 10.401 1.959C49.239 47.126 56.956 39.155 56.956 30c0-3.055-.835-5.987-2.481-8.714zm-4.372-2.347a.996.996 0 001.414.002.999.999 0 00.002-1.414 22.793 22.793 0 00-2.72-2.326 1 1 0 10-1.179 1.615 21.142 21.142 0 012.483 2.123z"/></svg>