<svg fill="#000000" xmlns="http://www.w3.org/2000/svg"  viewBox="0 0 64 64" width="50px" height="50px"><path d="M51 44c.553 0 1-.448 1-1v-2c0-.552-.447-1-1-1s-1 .448-1 1v2C50 43.552 50.447 44 51 44zM46 44c.553 0 1-.448 1-1v-2c0-.552-.447-1-1-1s-1 .448-1 1v2C45 43.552 45.447 44 46 44zM56 44c.553 0 1-.448 1-1v-2c0-.552-.447-1-1-1s-1 .448-1 1v2C55 43.552 55.447 44 56 44zM41 44c.553 0 1-.448 1-1v-2c0-.552-.447-1-1-1s-1 .448-1 1v2C40 43.552 40.447 44 41 44zM36 44c.553 0 1-.448 1-1v-2c0-.552-.447-1-1-1s-1 .448-1 1v2C35 43.552 35.447 44 36 44zM21 24h-8c-.553 0-1 .448-1 1s.447 1 1 1h8c.553 0 1-.448 1-1S21.553 24 21 24z"/><path d="M64,34v-8c0-1.1-0.9-2-2-2h-0.04C61.45,16.19,54.93,10,47,10H17C8.729,10,2,16.729,2,25v21.184C0.839,46.598,0,47.698,0,49c0,1.654,1.346,3,3,3h19.382l1.171,2.342C24.064,55.365,25.093,56,26.236,56H28v7c0,0.552,0.447,1,1,1s1-0.448,1-1v-7h6v7c0,0.552,0.447,1,1,1s1-0.448,1-1v-7h1.764c1.144,0,2.172-0.635,2.684-1.658L43.618,52H61c1.654,0,3-1.346,3-3c0-1.302-0.839-2.402-2-2.816V36C63.1,36,64,35.1,64,34z M47,12c6.83,0,12.45,5.3,12.96,12H41.64c-0.73-0.65-1.66-1-2.64-1c-1.07,0-2.07,0.42-2.83,1.17C35.42,24.93,35,25.93,35,27s0.42,2.07,1.17,2.83C36.93,30.58,37.93,31,39,31c0.98,0,1.91-0.35,2.64-1h15.34l0.88,4.39c0.18,0.93,1.01,1.61,1.96,1.61H60v10H32V25c0-5.558-3.045-10.409-7.548-13H47z M41,27c0,0.36-0.09,0.7-0.28,1c-0.08,0.15-0.19,0.29-0.31,0.41c-0.37,0.38-0.89,0.57-1.41,0.57s-1.04-0.19-1.41-0.57c-0.227-0.227-0.376-0.507-0.474-0.805c-0.023-0.071-0.061-0.135-0.075-0.208C37.023,27.266,37,27.136,37,27c0-0.136,0.023-0.266,0.04-0.397c0.015-0.072,0.052-0.135,0.074-0.205c0.098-0.299,0.248-0.58,0.476-0.808C37.96,25.21,38.47,25,39,25s1.04,0.21,1.41,0.59c0.12,0.12,0.23,0.26,0.31,0.41C40.91,26.3,41,26.64,41,27z M4,25c0-7.168,5.832-13,13-13s13,5.832,13,13v21H4V25z M40.658,53.447C40.487,53.788,40.145,54,39.764,54H37h-8h-2.764c-0.381,0-0.724-0.212-0.895-0.553L24.618,52h16.764L40.658,53.447z M61,50H43H23H3c-0.552,0-1-0.449-1-1s0.448-1,1-1h28h30c0.552,0,1,0.449,1,1S61.552,50,61,50z M60,34h-0.18l-0.88-4.39C58.75,28.68,57.93,28,56.98,28H42.87c0.09-0.32,0.13-0.66,0.13-1c0-0.34-0.04-0.68-0.13-1H60h2v8H60z"/></svg>