<svg fill="#000000" xmlns="http://www.w3.org/2000/svg"  viewBox="0 0 64 64" width="50px" height="50px"><path d="M53 18h-4c-.552 0-1 .448-1 1s.448 1 1 1h4c.552 0 1-.448 1-1S53.552 18 53 18zM37 34.177H25.406c-.552 0-1 .448-1 1v4.703c0 .552.448 1 1 1h5.119c-1.112 2.222-3.357 2.73-5.177 2.73-3.625 0-6.573-2.888-6.573-6.438s2.949-6.438 6.573-6.438c1.588 0 3.121.562 4.316 1.583.414.354 1.037.311 1.398-.097l3.144-3.548c.178-.201.268-.465.249-.732s-.144-.517-.348-.691c-2.428-2.075-5.539-3.218-8.759-3.218-7.368 0-13.362 5.895-13.362 13.141s5.994 13.141 13.362 13.141C32.916 50.314 38 45.176 38 37.529v-2.352C38 34.625 37.552 34.177 37 34.177zM36 37.529c0 6.451-4.281 10.785-10.652 10.785-6.265 0-11.362-4.998-11.362-11.141s5.097-11.141 11.362-11.141c2.4 0 4.727.744 6.655 2.111l-1.824 2.059c-1.416-.951-3.099-1.467-4.831-1.467-4.728 0-8.573 3.785-8.573 8.438s3.846 8.438 8.573 8.438c3.947 0 6.705-2.001 7.568-5.49.074-.299.006-.614-.183-.856s-.48-.384-.788-.384h-5.539v-2.703H36V37.529zM51 34h-2v-2c0-.552-.448-1-1-1h-4c-.552 0-1 .448-1 1v2h-2c-.552 0-1 .448-1 1v4c0 .552.448 1 1 1h2v2c0 .552.448 1 1 1h4c.552 0 1-.448 1-1v-2h2c.552 0 1-.448 1-1v-4C52 34.448 51.552 34 51 34zM50 38h-2c-.552 0-1 .448-1 1v2h-2v-2c0-.552-.448-1-1-1h-2v-2h2c.552 0 1-.448 1-1v-2h2v2c0 .552.448 1 1 1h2V38z"/><path d="M51,6H13c-3.86,0-7,3.14-7,7v38c0,3.86,3.14,7,7,7h38c3.86,0,7-3.14,7-7V13C58,9.14,54.86,6,51,6z M56,51c0,2.757-2.243,5-5,5H13c-2.757,0-5-2.243-5-5V20h37c0.552,0,1-0.448,1-1s-0.448-1-1-1H8v-5c0-2.757,2.243-5,5-5h38c2.757,0,5,2.243,5,5V51z"/><path d="M17 12c-.552 0-1 .448-1 1v2c0 .552.448 1 1 1s1-.448 1-1v-2C18 12.448 17.552 12 17 12zM12 12c-.552 0-1 .448-1 1v2c0 .552.448 1 1 1s1-.448 1-1v-2C13 12.448 12.552 12 12 12zM32 12c-.552 0-1 .448-1 1v2c0 .552.448 1 1 1s1-.448 1-1v-2C33 12.448 32.552 12 32 12zM37 12c-.552 0-1 .448-1 1v2c0 .552.448 1 1 1s1-.448 1-1v-2C38 12.448 37.552 12 37 12zM42 12c-.552 0-1 .448-1 1v2c0 .552.448 1 1 1s1-.448 1-1v-2C43 12.448 42.552 12 42 12zM47 16c.552 0 1-.448 1-1v-2c0-.552-.448-1-1-1s-1 .448-1 1v2C46 15.552 46.448 16 47 16zM52 16c.552 0 1-.448 1-1v-2c0-.552-.448-1-1-1s-1 .448-1 1v2C51 15.552 51.448 16 52 16zM22 12c-.552 0-1 .448-1 1v2c0 .552.448 1 1 1s1-.448 1-1v-2C23 12.448 22.552 12 22 12zM27 12c-.552 0-1 .448-1 1v2c0 .552.448 1 1 1s1-.448 1-1v-2C28 12.448 27.552 12 27 12z"/></svg>