<svg fill="#000000" xmlns="http://www.w3.org/2000/svg"  viewBox="0 0 64 64" width="50px" height="50px"><path d="M61,21H3c-0.552,0-1-0.448-1-1V10c0-0.552,0.448-1,1-1h58c0.552,0,1,0.448,1,1v10C62,20.552,61.552,21,61,21z M4,19h56v-8H4	V19z"/><path d="M61,38H3c-0.552,0-1-0.448-1-1V27c0-0.552,0.448-1,1-1h58c0.552,0,1,0.448,1,1v10C62,37.552,61.552,38,61,38z M4,36h56v-8H4	V36z"/><path d="M7,51c-0.552,0-1-0.448-1-1v-2c0-0.552,0.448-1,1-1s1,0.448,1,1v2C8,50.552,7.552,51,7,51z M12,51c-0.552,0-1-0.448-1-1v-2	c0-0.552,0.448-1,1-1s1,0.448,1,1v2C13,50.552,12.552,51,12,51z M17,51c-0.552,0-1-0.448-1-1v-2c0-0.552,0.448-1,1-1s1,0.448,1,1v2	C18,50.552,17.552,51,17,51z M22,51c-0.552,0-1-0.448-1-1v-2c0-0.552,0.448-1,1-1s1,0.448,1,1v2C23,50.552,22.552,51,22,51z M27,51	c-0.552,0-1-0.448-1-1v-2c0-0.552,0.448-1,1-1s1,0.448,1,1v2C28,50.552,27.552,51,27,51z M32,51c-0.552,0-1-0.448-1-1v-2	c0-0.552,0.448-1,1-1s1,0.448,1,1v2C33,50.552,32.552,51,32,51z M37,51c-0.552,0-1-0.448-1-1v-2c0-0.552,0.448-1,1-1s1,0.448,1,1v2	C38,50.552,37.552,51,37,51z M42,51c-0.552,0-1-0.448-1-1v-2c0-0.552,0.448-1,1-1s1,0.448,1,1v2C43,50.552,42.552,51,42,51z M47,51	c-0.552,0-1-0.448-1-1v-2c0-0.552,0.448-1,1-1s1,0.448,1,1v2C48,50.552,47.552,51,47,51z M52,51c-0.552,0-1-0.448-1-1v-2	c0-0.552,0.448-1,1-1s1,0.448,1,1v2C53,50.552,52.552,51,52,51z M57,51c-0.552,0-1-0.448-1-1v-2c0-0.552,0.448-1,1-1s1,0.448,1,1v2	C58,50.552,57.552,51,57,51z"/><path d="M61,55H3c-0.552,0-1-0.448-1-1V44c0-0.552,0.448-1,1-1h58c0.552,0,1,0.448,1,1v10C62,54.552,61.552,55,61,55z M4,53h56v-8 H4V53z"/></svg>