<svg fill="#000000" xmlns="http://www.w3.org/2000/svg"  viewBox="0 0 64 64" width="50px" height="50px"><path d="M48,13c-1.657,0-3,1.343-3,3s1.343,3,3,3s3-1.343,3-3S49.657,13,48,13z M48,17.47c-0.812,0-1.47-0.658-1.47-1.47	c0-0.812,0.658-1.47,1.47-1.47s1.47,0.658,1.47,1.47C49.47,16.812,48.812,17.47,48,17.47L48,17.47z"/><path d="M51,6H13c-3.866,0-7,3.134-7,7v38c0,3.866,3.134,7,7,7h38c3.866,0,7-3.134,7-7V13C58,9.134,54.866,6,51,6z M56,51	c0,2.761-2.239,5-5,5H13c-2.761,0-5-2.239-5-5V13c0-2.761,2.239-5,5-5h38c2.761,0,5,2.239,5,5V51z"/><path fill="none" stroke="#000000" stroke-miterlimit="10" stroke-width="2" d="M32,19c-7.18,0-13,5.82-13,13s5.82,13,13,13	s13-5.82,13-13S39.18,19,32,19z"/><path fill="none" stroke="#000000" stroke-miterlimit="10" stroke-width="2" d="M32,23c-4.971,0-9,4.029-9,9s4.029,9,9,9	s9-4.029,9-9S36.971,23,32,23z"/><line x1="11.947" x2="11.947" y1="50" y2="52" fill="none" stroke="#000000" stroke-linecap="round" stroke-linejoin="round" stroke-miterlimit="10" stroke-width="2"/><line x1="16.934" x2="16.934" y1="50" y2="52" fill="none" stroke="#000000" stroke-linecap="round" stroke-linejoin="round" stroke-miterlimit="10" stroke-width="2"/><line x1="21.92" x2="21.92" y1="50" y2="52" fill="none" stroke="#000000" stroke-linecap="round" stroke-linejoin="round" stroke-miterlimit="10" stroke-width="2"/><line x1="26.907" x2="26.907" y1="50" y2="52" fill="none" stroke="#000000" stroke-linecap="round" stroke-linejoin="round" stroke-miterlimit="10" stroke-width="2"/><line x1="31.894" x2="31.894" y1="50" y2="52" fill="none" stroke="#000000" stroke-linecap="round" stroke-linejoin="round" stroke-miterlimit="10" stroke-width="2"/><line x1="36.88" x2="36.88" y1="50" y2="52" fill="none" stroke="#000000" stroke-linecap="round" stroke-linejoin="round" stroke-miterlimit="10" stroke-width="2"/><line x1="41.867" x2="41.867" y1="50" y2="52" fill="none" stroke="#000000" stroke-linecap="round" stroke-linejoin="round" stroke-miterlimit="10" stroke-width="2"/><line x1="46.854" x2="46.854" y1="50" y2="52" fill="none" stroke="#000000" stroke-linecap="round" stroke-linejoin="round" stroke-miterlimit="10" stroke-width="2"/><line x1="51.84" x2="51.84" y1="50" y2="52" fill="none" stroke="#000000" stroke-linecap="round" stroke-linejoin="round" stroke-miterlimit="10" stroke-width="2"/></svg>