<svg fill="#000000" xmlns="http://www.w3.org/2000/svg"  viewBox="0 0 64 64" width="50px" height="50px"><path d="M64,29.759C64,15.65,49.645,4.173,32,4.173S0,15.65,0,29.759s14.355,25.586,32,25.586c2.208,0,4.432-0.187,6.62-0.555c1.283,2.015,4.833,6.331,12.404,8.014c0.072,0.016,0.145,0.023,0.217,0.023c0.317,0,0.621-0.151,0.812-0.415c0.233-0.324,0.252-0.757,0.046-1.1c-2.194-3.658-2.832-7.568-3.005-9.915C58.441,46.678,64,38.631,64,29.759z M47.622,49.893c-0.361,0.174-0.584,0.547-0.565,0.947c0.093,2.03,0.519,5.686,2.23,9.417c-6.087-1.997-8.611-5.827-9.284-7.054c-0.178-0.323-0.517-0.519-0.877-0.519c-0.061,0-0.122,0.006-0.184,0.017c-2.289,0.427-4.625,0.644-6.942,0.644c-16.542,0-30-10.581-30-23.586S15.458,6.173,32,6.173s30,10.581,30,23.586C62,38.034,56.625,45.561,47.622,49.893z"/><path d="M20 28A2 2 0 1 0 20 32 2 2 0 1 0 20 28zM32 28A2 2 0 1 0 32 32 2 2 0 1 0 32 28zM44 28A2 2 0 1 0 44 32 2 2 0 1 0 44 28zM31.709 45.69c-.55.048-.957.532-.909 1.083l.173 1.992c.045.521.481.913.995.913.028 0 .058-.001.088-.004.55-.048.957-.532.909-1.083L32.792 46.6C32.744 46.05 32.283 45.631 31.709 45.69zM12.198 36.977l-1.64 1.146c-.453.315-.563.939-.247 1.392.194.279.505.428.82.428.197 0 .397-.059.571-.181l1.64-1.146c.453-.315.563-.939.247-1.392C13.274 36.771 12.65 36.66 12.198 36.977zM15.705 41.197l-1.287 1.53c-.355.423-.301 1.054.122 1.409.188.157.416.234.643.234.285 0 .568-.121.767-.356l1.287-1.53c.355-.423.301-1.054-.122-1.409C16.691 40.721 16.062 40.776 15.705 41.197zM21.516 43.884c-.503-.23-1.097-.017-1.33.482l-.847 1.812c-.233.501-.018 1.096.482 1.33.138.063.281.094.423.094.377 0 .737-.213.907-.576l.847-1.812C22.231 44.713 22.016 44.118 21.516 43.884zM26.494 45.458c-.551-.103-1.062.267-1.159.81l-.35 1.97c-.097.544.266 1.062.81 1.159.06.011.118.016.176.016.476 0 .897-.341.983-.825l.35-1.97C27.4 46.073 27.038 45.555 26.494 45.458z"/><path d="M9.044 30c0-9.925 10.298-18 22.956-18 4.066 0 8.062.847 11.555 2.448.505.231 1.096.01 1.326-.492s.01-1.096-.492-1.326C40.637 10.909 36.353 10 32 10 18.239 10 7.044 18.972 7.044 30c0 1.347.167 2.69.497 3.996.115.453.521.755.969.755.081 0 .164-.01.246-.03.535-.136.859-.68.725-1.215C9.19 32.36 9.044 31.182 9.044 30zM54.475 21.286c-.287-.473-.902-.627-1.373-.34-.473.286-.625.9-.34 1.373 1.456 2.411 2.194 4.995 2.194 7.681 0 8.194-7.06 15.358-17.167 17.422-.541.11-.89.639-.779 1.18.097.474.513.8.979.8.066 0 .134-.007.201-.021C49.239 47.126 56.956 39.155 56.956 30 56.956 26.945 56.121 24.013 54.475 21.286zM50.103 18.939c.195.196.451.294.708.294.255 0 .511-.097.706-.292.391-.39.393-1.022.002-1.414-.826-.83-1.741-1.612-2.72-2.326-.446-.327-1.073-.227-1.397.218-.326.446-.228 1.072.218 1.397C48.514 17.469 49.349 18.184 50.103 18.939z"/></svg>